<?xml version="1.0" encoding="UTF-8" standalone="no"?>
<!-- Created with Inkscape (http://www.inkscape.org/) -->
<svg xmlns:dc="http://purl.org/dc/elements/1.1/" xmlns:cc="http://creativecommons.org/ns#" xmlns:rdf="http://www.w3.org/1999/02/22-rdf-syntax-ns#" xmlns:svg="http://www.w3.org/2000/svg" xmlns="http://www.w3.org/2000/svg" xmlns:sodipodi="http://sodipodi.sourceforge.net/DTD/sodipodi-0.dtd" xmlns:inkscape="http://www.inkscape.org/namespaces/inkscape" width="1000" height="999.07397" viewBox="0 0 1000 999.07398" id="svg6957" version="1.1" inkscape:version="0.91 r13725" sodipodi:docname="Nintendo Switch (Symbol) (Print).svg">
  <defs id="defs6959"/>
  <sodipodi:namedview id="base" pagecolor="#000000" bordercolor="#666666" borderopacity="1.0" inkscape:pageopacity="0.0" inkscape:pageshadow="2" inkscape:zoom="0.35" inkscape:cx="188.16941" inkscape:cy="613.19596" inkscape:document-units="px" inkscape:current-layer="layer1" showgrid="false" units="px" inkscape:window-width="1366" inkscape:window-height="705" inkscape:window-x="-8" inkscape:window-y="-8" inkscape:window-maximized="1"/>
  <metadata id="metadata6962">
    <rdf:RDF>
      <cc:Work rdf:about="">
        <dc:format>image/svg+xml</dc:format>
        <dc:type rdf:resource="http://purl.org/dc/dcmitype/StillImage"/>
        <dc:title/>
      </cc:Work>
    </rdf:RDF>
  </metadata>
  <g inkscape:label="Layer 1" inkscape:groupmode="layer" id="layer1" transform="translate(0,-53.288158)">
    <g id="icon" transform="matrix(9.2592593,0,0,9.2592593,0,53.288086)" style="fill:#e60012;fill-opacity:1">
      <path inkscape:connector-curvature="0" class="white" d="m 16.9,32.4 c 0,-5.6 4.5,-10.1 10.1,-10.1 5.6,0 10.1,4.5 10.1,10.1 C 37.1,38 32.6,42.5 27,42.5 21.4,42.5 16.9,38 16.9,32.4 Z M 43.4,8.7 27.7,8.7 c -5,0 -9.9,2 -13.4,5.6 -3.6,3.5 -5.6,8.4 -5.6,13.4 l 0,52.6 c 0,5.1 2,9.8 5.6,13.4 3.5,3.6 8.4,5.6 13.4,5.6 l 15.7,0 c 0,-0.1 0,-90.6 0,-90.6 z m 7.9,99.2 -23.6,0 C 12.4,107.9 0,95.5 0,80.2 L 0,27.7 C 0,12.4 12.4,0 27.7,0 l 23.6,0 c 0.4,0 0.8,0.4 0.8,0.8 l 0,0 0,106.3 c 0,0.5 -0.4,0.8 -0.8,0.8 l 0,0 z m 33,-59.4 c -6,0 -10.9,4.9 -10.9,10.9 0,6 4.9,10.9 10.9,10.9 6,0 10.9,-4.9 10.9,-10.9 0,-6 -4.9,-10.9 -10.9,-10.9 l 0,0 z m -4,59.4 -16.6,0 c -0.4,0 -0.8,-0.4 -0.8,-0.8 l 0,0 0,-106.4 C 62.9,0.3 63.2,0 63.6,0 l 0,0 16.7,0 C 95.6,0 108,12.4 108,27.7 l 0,52.6 c 0,15.3 -12.4,27.6 -27.7,27.6 l 0,0 z" id="path8083" style="fill:#e60012;fill-opacity:1"/>
    </g>
  </g>
<script xmlns=""/></svg>